<svg width="256" height="256" viewBox="0 0 256 256" fill="none" xmlns="http://www.w3.org/2000/svg">
<g clip-path="url(#clip0_1_2)">
<path d="M229.526 208.195H26.4747C12.0444 208.195 0.304749 195.984 0.304749 180.976V27.3811C0.304749 12.3724 12.0447 0.161682 26.4747 0.161682H229.526C243.956 0.161682 255.696 12.3724 255.696 27.3811V180.976C255.696 195.985 243.956 208.195 229.526 208.195ZM26.4747 16.2018C20.5482 16.2018 15.7264 21.2169 15.7264 27.3811V180.976C15.7264 187.141 20.5482 192.155 26.4747 192.155H229.526C235.452 192.155 240.274 187.141 240.274 180.976V27.3811C240.274 21.2169 235.452 16.2018 229.526 16.2018H26.4747ZM247.985 255.982H8.01559C3.75705 255.982 0.304749 252.392 0.304749 247.962C0.304749 243.532 3.75705 239.942 8.01559 239.942H247.984C252.243 239.942 255.695 243.532 255.695 247.962C255.695 252.392 252.243 255.982 247.985 255.982Z" fill="#515151"/>
<path d="M91.8047 56.782L66.0735 149.814H47.0091L21.5904 56.782H39.7171L55.2915 121.528C56.1246 125.032 56.6278 128.125 56.8018 130.806H57.1142C57.3571 127.909 57.8956 124.73 58.7291 121.269L74.1989 56.7824H91.8047V56.782ZM117.588 117.766V149.815H100.764V56.782H127.12C145.941 56.782 155.352 66.6655 155.352 86.4303C155.352 95.7724 152.651 103.33 147.252 109.105C141.852 114.879 134.638 117.766 125.61 117.766H117.588ZM117.588 72.8716V101.871H124.203C133.162 101.871 137.642 96.9842 137.642 87.209C137.642 77.6511 133.162 72.8716 124.203 72.8716H117.588ZM233.484 149.815H216.503L185.72 91.3612C183.914 87.945 182.664 85.3714 181.969 83.6409H181.761C182.038 86.9283 182.177 91.9453 182.177 98.6921V149.815H166.29V56.782H184.417L214.055 113.419C215.372 115.896 216.623 118.428 217.805 121.009H218.014C217.736 118.847 217.597 114.587 217.597 108.229V56.782H233.484V149.815Z" fill="#515151"/>
</g>
<defs>
<clipPath id="clip0_1_2">
<rect width="256" height="256" fill="white"/>
</clipPath>
</defs>
</svg>
